<?xml version="1.0" encoding="UTF-8"?>
<!DOCTYPE svg PUBLIC "-//W3C//DTD SVG 1.1//EN" "http://www.w3.org/Graphics/SVG/1.1/DTD/svg11.dtd">
<!-- Creator: CorelDRAW -->
<svg xmlns="http://www.w3.org/2000/svg" xml:space="preserve" width="43.4511mm" height="46.0723mm" version="1.1" style="shape-rendering:geometricPrecision; text-rendering:geometricPrecision; image-rendering:optimizeQuality; fill-rule:evenodd; clip-rule:evenodd"
viewBox="0 0 27.5372 29.1984"
 xmlns:xlink="http://www.w3.org/1999/xlink"
 xmlns:xodm="http://www.corel.com/coreldraw/odm/2003">
 <defs>
  <style type="text/css">
   <![CDATA[
    .fil6 {fill:#1E293B;fill-rule:nonzero}
    .fil3 {fill:#22C55E;fill-rule:nonzero}
    .fil5 {fill:#334155;fill-rule:nonzero}
    .fil0 {fill:#64748B;fill-rule:nonzero}
    .fil1 {fill:#EF4444;fill-rule:nonzero}
    .fil2 {fill:#F59E0B;fill-rule:nonzero}
    .fil4 {fill:#F8FAFC;fill-rule:nonzero}
    .fil7 {fill:#FDA4AF;fill-rule:nonzero;fill-opacity:0.600000}
    .fil8 {fill:#06B6D4;fill-rule:nonzero;fill-opacity:0.901961}
   ]]>
  </style>
 </defs>
 <g id="Слой_x0020_1">
  <metadata id="CorelCorpID_0Corel-Layer"/>
  <path class="fil0" d="M2.0122 0.0001l17.4387 0c0.5555,0 1.0586,0.2253 1.4228,0.5895 0.3624,0.3624 0.5867,0.8655 0.5868,1.4226l0.0027 0 -0.0027 0.0001 -0.0001 17.4387 0.0027 0c0,0.5555 -0.2253,1.0586 -0.5895,1.4227 -0.3624,0.3624 -0.8655,0.5867 -1.4226,0.5868l0 0.0027 -0.0001 -0.0027 -17.4387 0.0001c-0.5573,-0.0001 -1.0603,-0.2245 -1.4227,-0.5869 -0.3641,-0.3641 -0.5895,-0.8672 -0.5895,-1.4227l0.0027 0 -0.0001 -17.4387c0.0001,-0.5555 0.2244,-1.0577 0.5869,-1.4202l0.0026 -0.0026c0.3642,-0.3641 0.8665,-0.5895 1.4202,-0.5894zm17.4387 1.3415l-17.4388 0c-0.1863,-0.0001 -0.3543,0.0746 -0.4756,0.1951 -0.1221,0.1229 -0.1978,0.2911 -0.1978,0.4756l0.0001 17.4387 0.0027 0c0,0.1852 0.0751,0.3529 0.1964,0.4742 0.123,0.123 0.291,0.1992 0.4742,0.1992l17.4387 -0.0001 0 -0.0027 0.0001 0.0027c0.1833,0 0.3512,-0.0761 0.4741,-0.1991 0.1213,-0.1213 0.1964,-0.289 0.1964,-0.4741l0.0027 -0.0001 0.0001 -17.4387 -0.0027 0 0.0027 -0.0001c0,-0.1833 -0.0761,-0.3512 -0.1991,-0.4741 -0.1213,-0.1213 -0.2891,-0.1964 -0.4742,-0.1964z"/>
  <circle class="fil1" cx="3.4986" cy="3.1804" r="1.0061"/>
  <circle class="fil2" cx="6.8521" cy="3.1804" r="1.0061"/>
  <circle class="fil3" cx="10.2057" cy="3.1804" r="1.0061"/>
  <g id="_2325399860000">
   <path class="fil4" d="M20.7853 16.2365c-2.7611,0 -4.832,2.0708 -4.832,4.832l0 6.2126 9.664 0 0 -6.2126c0,-2.7611 -2.0708,-4.832 -4.832,-4.832z"/>
   <path class="fil5" d="M16.672 24.5199c0,-0.1986 -0.0804,-0.3783 -0.2104,-0.5084l0 -0.0015c-0.129,-0.129 -0.3088,-0.2089 -0.5083,-0.2089 -0.1996,0 -0.3794,0.0799 -0.5084,0.2089l0 0.0015c-0.13,0.13 -0.2104,0.3098 -0.2104,0.5084 0,0.1986 0.0804,0.3783 0.2104,0.5083 0.13,0.13 0.3098,0.2104 0.5084,0.2104 0.1995,0 0.3792,-0.0799 0.5083,-0.2089l0 -0.0015c0.13,-0.13 0.2104,-0.3098 0.2104,-0.5083zm4.1132 -7.705c-1.2209,0 -2.2856,0.4543 -3.0424,1.2111 -0.7568,0.7569 -1.211,1.8216 -1.211,3.0425l0 2.0784c0.1782,0.0755 0.3391,0.1849 0.4743,0.32l0.0008 -0.0007c0.2696,0.2696 0.4365,0.6422 0.4365,1.0535 0,0.4112 -0.1669,0.7839 -0.4365,1.0535l-0.0008 -0.0008c-0.1352,0.1351 -0.2961,0.2446 -0.4743,0.32l0 0.8099 8.507 0 0 -5.634c0,-1.221 -0.4541,-2.2856 -1.2111,-3.0426 -0.7568,-0.7568 -1.8215,-1.211 -3.0424,-1.211zm-5.4103 6.3321l0 -2.0784c0,-1.5401 0.5814,-2.8917 1.55,-3.8604 0.9688,-0.9688 2.3202,-1.5501 3.8603,-1.5501 1.5402,0 2.8917,0.5813 3.8604,1.55 0.9688,0.9688 1.5501,2.3203 1.5501,3.8605l0 6.791 -10.8208 0 0 -1.9661c-0.1789,-0.0754 -0.3399,-0.1848 -0.4751,-0.32 -0.2696,-0.2697 -0.4365,-0.6423 -0.4365,-1.0535 0,-0.4113 0.1669,-0.7839 0.4365,-1.0535l0.0008 0.0007c0.1352,-0.1351 0.2961,-0.2445 0.4744,-0.32z"/>
   <circle class="fil6" cx="19.1286" cy="20.3782" r="0.6903"/>
   <circle class="fil6" cx="22.4419" cy="20.3782" r="0.6903"/>
   <path class="fil7" d="M18.7144 21.7588c0,-0.2287 -0.1855,-0.4142 -0.4142,-0.4142 -0.2287,0 -0.4142,0.1854 -0.4142,0.4142 0,0.2287 0.1854,0.4142 0.4142,0.4142 0.2287,0 0.4142,-0.1855 0.4142,-0.4142z"/>
   <path class="fil7" d="M23.6844 21.7588c0,-0.2287 -0.1854,-0.4142 -0.4142,-0.4142 -0.2287,0 -0.4141,0.1854 -0.4141,0.4142 0,0.2287 0.1854,0.4142 0.4141,0.4142 0.2287,0 0.4142,-0.1855 0.4142,-0.4142z"/>
  </g>
  <polygon class="fil0" points="0.6707,5.0305 20.7923,5.0305 20.7923,6.372 0.6707,6.372 "/>
  <path class="fil8" d="M8.0862 7.7353l17.4387 0c0.5555,0 1.0586,0.2254 1.4228,0.5895 0.3641,0.3641 0.5895,0.8672 0.5895,1.4227l0 17.4387c0,0.5555 -0.2254,1.0586 -0.5895,1.4227 -0.3641,0.3641 -0.8672,0.5895 -1.4227,0.5895l0 -0.0027 -17.4387 0.0001c-0.5573,-0.0001 -1.0603,-0.2245 -1.4227,-0.5869 -0.3641,-0.3641 -0.5895,-0.8672 -0.5895,-1.4227l0 -17.4386c0,-0.5555 0.2254,-1.0586 0.5895,-1.4227 0.3642,-0.3642 0.8672,-0.5895 1.4227,-0.5895zm-0.6706 5.0304l18.7801 0 0 -3.0182c0,-0.1852 -0.0751,-0.3529 -0.1964,-0.4742 -0.1213,-0.1213 -0.2891,-0.1965 -0.4743,-0.1965l-17.4387 0c-0.1852,0 -0.353,0.0752 -0.4743,0.1965 -0.1213,0.1213 -0.1964,0.2891 -0.1964,0.4742l0 3.0182zm18.7801 1.3415l-18.7801 0 0 13.0789c0,0.1852 0.0751,0.3529 0.1964,0.4742 0.123,0.123 0.291,0.1992 0.4742,0.1992l17.4387 -0.0001 0 -0.0027c0.1852,0 0.3529,-0.0751 0.4742,-0.1964 0.1213,-0.1213 0.1965,-0.2891 0.1965,-0.4742l0 -13.079z"/>
  <circle class="fil1" cx="9.8126" cy="10.9581" r="1.0061"/>
  <circle class="fil2" cx="13.1661" cy="10.9581" r="1.0061"/>
  <circle class="fil3" cx="16.5197" cy="10.9581" r="1.0061"/>
 </g>
</svg>
